<?xml version="1.0" standalone="no"?><!DOCTYPE svg PUBLIC "-//W3C//DTD SVG 1.1//EN" "http://www.w3.org/Graphics/SVG/1.1/DTD/svg11.dtd"><svg t="1507295664388" class="icon" style="" viewBox="0 0 1024 1024" version="1.1" xmlns="http://www.w3.org/2000/svg" p-id="12164" xmlns:xlink="http://www.w3.org/1999/xlink" width="256" height="256"><defs><style type="text/css"></style></defs><path d="M512 512m-416 0a416 416 0 1 0 832 0 416 416 0 1 0-832 0Z" fill="#75C3F4" p-id="12165"></path><path d="M738.92 258.32h-220.6a26 26 0 0 0 0 52H676l-115.24 115.28a208.52 208.52 0 1 0 36.88 36.64l115.16-115.2v157.88a26 26 0 0 0 52 0V284.32a26 26 0 0 0-25.88-26zM434 746a156 156 0 1 1 156-156 156 156 0 0 1-156 156z" fill="#FFFFFF" p-id="12166"></path></svg>