<?xml version="1.0" standalone="no"?><!DOCTYPE svg PUBLIC "-//W3C//DTD SVG 1.1//EN" "http://www.w3.org/Graphics/SVG/1.1/DTD/svg11.dtd"><svg t="1507295681007" class="icon" style="" viewBox="0 0 1024 1024" version="1.1" xmlns="http://www.w3.org/2000/svg" p-id="12337" xmlns:xlink="http://www.w3.org/1999/xlink" width="256" height="256"><defs><style type="text/css"></style></defs><path d="M512 512m-416 0a416 416 0 1 0 832 0 416 416 0 1 0-832 0Z" fill="#FAA3C8" p-id="12338"></path><path d="M590 226a207.64 207.64 0 0 0-164 335.28l-44.2 44-85.36-84a26 26 0 1 0-36.52 37l84.96 83.76-83.72 82.56a26 26 0 1 0 36.6 36.92l84-83.28 86 84.8a26 26 0 0 0 36.52-37l-85.6-84.4 44-43.56a208 208 0 1 0 127.4-372z m0 364a156 156 0 1 1 156-156 156 156 0 0 1-156 156z" fill="#FFFFFF" p-id="12339"></path></svg>